<svg width="31" height="30" viewBox="0 0 31 30" fill="none" xmlns="http://www.w3.org/2000/svg">
<path fill-rule="evenodd" clip-rule="evenodd" d="M23.4517 14.8461C27.5295 14.8461 30.8353 11.5403 30.8353 7.46247C30.8353 3.3846 27.5295 0.0788422 23.4517 0.0788422C19.3738 0.0788422 16.0681 3.3846 16.0681 7.46247C16.0681 11.5403 19.3738 14.8461 23.4517 14.8461ZM26.7525 4.54912L22.1048 9.19676L20.158 7.23625C20.0483 7.12658 19.9181 7.07174 19.7673 7.07174C19.6165 7.07174 19.4862 7.12658 19.3766 7.23625C19.2669 7.34593 19.2098 7.47618 19.2052 7.62699C19.2006 7.77779 19.2532 7.90804 19.3629 8.01772L21.7209 10.3758C21.8306 10.4855 21.9586 10.5403 22.1048 10.5403C22.2511 10.5403 22.379 10.4855 22.4887 10.3758L27.5339 5.33058C27.6436 5.22091 27.6984 5.09066 27.6984 4.93985C27.6984 4.78905 27.6436 4.6588 27.5339 4.54912C27.4242 4.43944 27.294 4.3846 27.1432 4.3846C26.9924 4.3846 26.8621 4.43944 26.7525 4.54912Z" fill="#FBFBFB"/>
<path fill-rule="evenodd" clip-rule="evenodd" d="M14.125 5.5969L12.864 4.87184C12.4619 4.63902 12.0386 4.52261 11.5941 4.52261C11.1496 4.52261 10.7263 4.63902 10.3242 4.87184L1.43466 9.9833C1.03252 10.2161 0.720327 10.523 0.49809 10.904C0.275853 11.285 0.164734 11.7083 0.164734 12.1739V22.2698C0.164734 22.7355 0.275853 23.1588 0.49809 23.5398C0.720327 23.9208 1.03252 24.2277 1.43466 24.4605L10.3242 29.5719C10.7263 29.8048 11.1496 29.9212 11.5941 29.9212C12.0386 29.9212 12.4619 29.8048 12.864 29.5719L21.7535 24.4605C22.1557 24.2277 22.4678 23.9208 22.6901 23.5398C22.9123 23.1588 23.0234 22.7355 23.0234 22.2698V17.2098C22.1401 17.1658 21.2882 17.0024 20.4836 16.7354V22.2381L12.864 26.6511V17.9521L17.6155 15.2002C16.4467 14.2898 15.4941 13.1149 14.8476 11.7654L9.11773 8.49113L11.5941 7.06246L13.9432 8.42037C13.9216 8.1577 13.9106 7.89204 13.9106 7.62381C13.9106 6.92842 13.9845 6.25031 14.125 5.5969ZM10.3242 17.9521V26.6511L2.70459 22.2381V13.5391L10.3242 17.9521ZM14.0704 14.3328L11.5941 15.7615L4.06976 11.412L6.54612 9.9833L14.0704 14.3328Z" fill="#FBFBFB"/>
</svg>
