<svg width="79" height="48" viewBox="0 0 79 48" fill="none" xmlns="http://www.w3.org/2000/svg">
<rect width="79" height="48" rx="10" fill="white"/>
<rect width="79" height="48" rx="10" fill="#00A550"/>
<path fill-rule="evenodd" clip-rule="evenodd" d="M47.4517 23.8461C51.5295 23.8461 54.8353 20.5403 54.8353 16.4625C54.8353 12.3846 51.5295 9.07886 47.4517 9.07886C43.3738 9.07886 40.068 12.3846 40.068 16.4625C40.068 20.5403 43.3738 23.8461 47.4517 23.8461ZM50.7524 13.5491L46.1048 18.1968L44.158 16.2363C44.0483 16.1266 43.9181 16.0718 43.7673 16.0718C43.6165 16.0718 43.4862 16.1266 43.3765 16.2363C43.2669 16.3459 43.2097 16.4762 43.2052 16.627C43.2006 16.7778 43.2532 16.9081 43.3628 17.0177L45.7209 19.3758C45.8306 19.4855 45.9586 19.5403 46.1048 19.5403C46.251 19.5403 46.379 19.4855 46.4887 19.3758L51.5339 14.3306C51.6436 14.2209 51.6984 14.0907 51.6984 13.9399C51.6984 13.7891 51.6436 13.6588 51.5339 13.5491C51.4242 13.4395 51.294 13.3846 51.1432 13.3846C50.9924 13.3846 50.8621 13.4395 50.7524 13.5491Z" fill="#FBFBFB"/>
<path fill-rule="evenodd" clip-rule="evenodd" d="M38.125 14.5969L36.864 13.8719C36.4619 13.6391 36.0385 13.5226 35.5941 13.5226C35.1496 13.5226 34.7263 13.6391 34.3241 13.8719L25.4346 18.9833C25.0325 19.2162 24.7203 19.5231 24.4981 19.904C24.2758 20.285 24.1647 20.7083 24.1647 21.174V31.2699C24.1647 31.7355 24.2758 32.1588 24.4981 32.5398C24.7203 32.9208 25.0325 33.2277 25.4346 33.4605L34.3241 38.572C34.7263 38.8048 35.1496 38.9212 35.5941 38.9212C36.0385 38.9212 36.4619 38.8048 36.864 38.572L45.7535 33.4605C46.1556 33.2277 46.4678 32.9208 46.6901 32.5398C46.9123 32.1588 47.0234 31.7355 47.0234 31.2699V26.2098C46.1401 26.1659 45.2882 26.0025 44.4836 25.7355V31.2381L36.864 35.6511V26.9521L41.6155 24.2002C40.4467 23.2898 39.4941 22.1149 38.8476 20.7654L33.1177 17.4912L35.5941 16.0625L37.9432 17.4204C37.9216 17.1577 37.9106 16.8921 37.9106 16.6238C37.9106 15.9285 37.9845 15.2503 38.125 14.5969ZM34.3241 26.9521V35.6511L26.7046 31.2381V22.5391L34.3241 26.9521ZM38.0704 23.3328L35.5941 24.7615L28.0697 20.412L30.5461 18.9833L38.0704 23.3328Z" fill="#FBFBFB"/>
</svg>
